# xmcd
#
# Track frame offsets:
#	150
#	19580
#	35635
#	52419
#	67367
#	80614
#	99855
#	117746
#	132154
#	152313
#	166424
#	187231
#	202044
#	216560
#	234397
#	248805
#	260756
#
# Disc length: 3750 seconds
#
# Revision: 0
# Processed by: cddbd v1.5.2PL0 Copyright (c) Steve Scherf et al.
# Submitted via: EasyCDDAExtractor 16.0.8.2
#
DISCID=060ea411
DTITLE=Γαϊτάνος Πέτρος - Αγέρας, έρωτας και αρμύρα
DYEAR=1998
DGENRE=Παραδοσιακή
TTITLE0=Σ' αγαπώ γιατί είσαι ωραία [καντάδα, Μ. Ασία]
TTITLE1=Ένα τρεχαντηράκι [Σκύρου, Αιγαίο Πέλαγος]
TTITLE2=Καράβι, καραβάκι [συρτός, Κωνσταντινούπολη]
TTITLE3=Σηκώστε να χορέψουμε [συρτός, Κωνσταντινούπολη]
TTITLE4=Ρουμπαλιά, Γαρουφαλιά [Μιχαλήτσιον-Προποντίς]
TTITLE5=Σαν τα μάρμαρα της Πόλης [αργός καρσιλαμάς, Μ.Ασία]
TTITLE6=Αρχοντογιός παντρεύεται [καλαμ.Προποντίδος]
TTITLE7=Ένα καράβι από τη Χίο [συρτός, Αγαίο Πέλαγος]
TTITLE8=Γιαρούμπι [κώμος Προποντίδος, Πάνορμος Κυζίκου]
TTITLE9=Αραμπάς περνά [σμυρναίϊκος καρσιλαμάς, Μικρά Ασία]
TTITLE10=Στό 'πα και στο ξαναλέω [καθ. ναυτ, Κατερλί Νικομηδείας]
TTITLE11=Αλατσατιανή [καρσιλαμάς Ερυθραίας, Μικρά Ασία]
TTITLE12=Εγγλεζίτσα [συρτό Σμύρνης, Μικρά Ασία]
TTITLE13=Τζιβαέρι [κώτικο τραγούδι, Αιγαίο Πέλαγος]
TTITLE14=Έχε γεια Παναγιά [χασάπικος χορός, Κωνσταντινούπολη]
TTITLE15=Αυτοσχεδιασμός κεμεντζέ [λύρα Πόντου Μιχ. Καλιοντζίδης]
TTITLE16=Η μάνα εν κρύον νερόν (Το τραγ. της μάνας)[χορ. τικ, Πόντος]
EXTD=
EXTT0=
EXTT1=
EXTT2=
EXTT3=
EXTT4=
EXTT5=
EXTT6=
EXTT7=
EXTT8=
EXTT9=
EXTT10=
EXTT11=
EXTT12=
EXTT13=
EXTT14=
EXTT15=
EXTT16=
PLAYORDER=
